<svg xmlns="http://www.w3.org/2000/svg" viewBox="0 0 1024 1024" role="img" aria-label="Contai">
  <defs>
    <radialGradient id="bg" cx="50%" cy="45%" r="72%">
      <stop offset="0%" stop-color="#7f1dff"/>
      <stop offset="55%" stop-color="#6d12f1"/>
      <stop offset="100%" stop-color="#5b00d9"/>
    </radialGradient>
    <filter id="soft" x="-20%" y="-20%" width="140%" height="140%">
      <feDropShadow dx="0" dy="4" stdDeviation="10" flood-color="#ffffff" flood-opacity=".26"/>
    </filter>
  </defs>
  <rect width="1024" height="1024" rx="158" fill="url(#bg)"/>
  <g fill="none" stroke="#fff" stroke-linecap="round" stroke-linejoin="round" filter="url(#soft)">
    <path d="M296 379a306 306 0 0 1 436-46 298 298 0 0 1 100 123" stroke-width="36"/>
    <path d="m774 382 71 19-29 68" stroke-width="40"/>
    <path d="M733 604a306 306 0 0 1-442 83 298 298 0 0 1-98-116" stroke-width="36"/>
    <path d="m250 652-60-44-22 75" stroke-width="40"/>
  </g>
  <path fill="#fff" d="M414 367h189c20 0 36 16 36 36v1H415c-27 0-49 22-49 49v151c0 38 31 69 69 69h171c38 0 69-31 69-69v-77c0-28-23-51-51-51h-60c-14 0-26 12-26 26v36c0 14 12 26 26 26h73v40c0 17-14 31-31 31H435c-17 0-31-14-31-31V453c0-17 14-31 31-31h224c0-30-25-55-55-55H414z"/>
  <rect width="84" height="40" x="585" y="512" fill="#fff" rx="12"/>
</svg>
